<?xml version="1.0" encoding="UTF-8" standalone="no"?>
<svg
   width="64"
   height="64"
   viewBox="0 0 64 64"
   fill="none"
   version="1.1"
   id="svg1"
   sodipodi:docname="Corrupted_normal_1668171552-Corrupted.svg"
   inkscape:version="1.3 (0e150ed6c4, 2023-07-21)"
   xmlns:inkscape="http://www.inkscape.org/namespaces/inkscape"
   xmlns:sodipodi="http://sodipodi.sourceforge.net/DTD/sodipodi-0.dtd"
   xmlns="http://www.w3.org/2000/svg"
   xmlns:svg="http://www.w3.org/2000/svg">
  <defs
     id="defs1" />
  <sodipodi:namedview
     id="namedview1"
     pagecolor="#ffffff"
     bordercolor="#000000"
     borderopacity="0.25"
     inkscape:showpageshadow="2"
     inkscape:pageopacity="0.0"
     inkscape:pagecheckerboard="0"
     inkscape:deskcolor="#d1d1d1"
     showgrid="false"
     inkscape:zoom="8.234375"
     inkscape:cx="31.939279"
     inkscape:cy="32"
     inkscape:window-width="1366"
     inkscape:window-height="705"
     inkscape:window-x="-8"
     inkscape:window-y="-8"
     inkscape:window-maximized="1"
     inkscape:current-layer="svg1" />
  <path
     fill-rule="evenodd"
     clip-rule="evenodd"
     d="M50.0662 10.0332C35.7197 9.10741 37.57 27.8517 37.57 27.8517C53.0747 23.6863 50.0662 10.0332 50.0662 10.0332ZM27.3153 28.547C27.3153 28.547 29.1669 9.80272 14.8191 10.7285C14.8191 10.7285 11.8107 24.3816 27.3153 28.547ZM42.5865 34.9184L47.7926 36.6394L53 29.8703L50.301 47.6849L43.8962 41.9839L37.4914 54.8104L31.9993 44.8344L25.2316 54.8104L20.9878 41.331L12.7354 47.6849L11 27.8516L14.583 37.3523L20.9878 35.2148L25.2316 41.9839L31.827 34.9184L37.4914 41.9839L42.5865 34.9184Z"
     fill="#a0a0a0"
     id="path1"
     style="fill:#bd9e59;fill-opacity:1" />
</svg>
