<?xml version="1.0" encoding="UTF-8" standalone="no"?>
<svg
   width="58"
   height="58"
   viewBox="0 0 58 58"
   fill="none"
   version="1.1"
   id="svg1"
   sodipodi:docname="Guild_TFT_icon.svg"
   inkscape:version="1.3 (0e150ed6c4, 2023-07-21)"
   xmlns:inkscape="http://www.inkscape.org/namespaces/inkscape"
   xmlns:sodipodi="http://sodipodi.sourceforge.net/DTD/sodipodi-0.dtd"
   xmlns="http://www.w3.org/2000/svg"
   xmlns:svg="http://www.w3.org/2000/svg">
  <defs
     id="defs1" />
  <sodipodi:namedview
     id="namedview1"
     pagecolor="#ffffff"
     bordercolor="#000000"
     borderopacity="0.25"
     inkscape:showpageshadow="2"
     inkscape:pageopacity="0.0"
     inkscape:pagecheckerboard="0"
     inkscape:deskcolor="#d1d1d1"
     showgrid="false"
     inkscape:zoom="14.916667"
     inkscape:cx="12"
     inkscape:cy="11.899441"
     inkscape:window-width="1366"
     inkscape:window-height="705"
     inkscape:window-x="-8"
     inkscape:window-y="-8"
     inkscape:window-maximized="1"
     inkscape:current-layer="svg1" />
  <path
     fill-rule="evenodd"
     clip-rule="evenodd"
     d="M 26.998697,0.05646804 C 23.19994,0.32898858 19.80589,1.2376101 16.316298,2.9159959 13.133579,4.4469565 10.861169,6.0514189 8.3652738,8.5300455 6.8174405,10.067123 5.4714732,11.7178 5.6443393,11.867018 c 0.1790352,0.154596 4.1864871,2.404703 4.2827406,2.404703 0.048298,0 0.2864671,-0.255437 0.5293811,-0.567529 0.544672,-0.699769 2.709414,-2.812706 3.619828,-3.532907 1.944052,-1.5381314 4.989127,-3.1651347 7.39905,-3.9535645 0.701034,-0.2292843 1.984731,-0.5657102 2.852726,-0.7475663 1.489016,-0.3120659 1.752916,-0.330705 4.673475,-0.330705 2.920559,0 3.184459,0.018639 4.673475,0.330705 3.865959,0.810048 7.538936,2.5204657 10.439459,4.8613688 0.938808,0.757716 3.291232,3.095746 3.633695,3.611629 0.119691,0.180775 0.262581,0.328569 0.316627,0.328569 0.103872,0 4.10244,-2.23935 4.293839,-2.404703 C 52.672099,11.596159 49.217676,7.9081809 47.088552,6.2404195 43.907783,3.7492175 39.972752,1.8345084 35.981303,0.83617153 33.356807,0.17963878 29.702284,-0.13756806 26.998697,0.05646804 Z M 26.816525,10.048721 c -4.424814,0.573355 -8.522666,2.612685 -11.525243,5.73519 -6.0431439,6.284793 -6.9114291,15.688162 -2.119344,22.950543 0.357728,0.542035 0.701035,0.985735 0.762805,0.985735 0.09153,0 3.070436,-1.699134 4.109769,-2.343988 l 0.271545,-0.168463 -0.5573,-0.745036 c -0.306504,-0.40969 -0.822413,-1.282589 -1.146527,-1.939833 -3.695333,-7.491745 0.142759,-16.31812 8.225971,-18.917097 2.004424,-0.644563 4.955301,-0.783262 7.05068,-0.331548 7.797826,1.681391 12.578865,9.514676 10.390686,17.025402 -0.371199,1.274417 -1.301307,3.181823 -2.02077,4.143304 l -0.542563,0.725526 2.113834,1.305525 c 1.162635,0.718145 2.151533,1.30579 2.197406,1.30579 0.155545,0 1.238826,-1.653262 1.848088,-2.820642 2.051088,-3.930286 2.579679,-8.644097 1.452107,-12.950064 -0.591599,-2.258755 -1.319498,-3.854702 -2.654023,-5.818895 -2.224034,-3.273516 -5.686892,-5.906053 -9.461896,-7.193651 -2.102498,-0.716985 -3.31786,-0.919484 -5.785493,-0.963696 -1.201652,-0.02151 -2.376151,-0.01434 -2.609732,0.0159 z m -24.6438237,7.5982 c -0.9338515,2.135373 -1.7879267,5.465544 -2.07004359,8.071296 -0.20757909,1.917161 -0.08702625,5.653674 0.24167512,7.490426 1.05805037,5.913619 3.62167327,10.933513 7.70291687,15.083934 0.7270026,0.739236 1.35907,1.344017 1.4047054,1.344017 0.04553,0 0.1750543,-0.282355 0.2877059,-0.62719 0.1126517,-0.3451 0.499379,-1.528035 0.859427,-2.628451 l 0.654661,-2.001261 -0.737944,-0.866308 C 5.262568,37.346674 3.6728429,28.497995 6.4325055,20.786747 c 0.258337,-0.721756 0.4300958,-1.34602 0.3817713,-1.387253 -0.1775852,-0.151959 -4.1743334,-2.379842 -4.269137,-2.379842 -0.053913,0 -0.2215333,0.282328 -0.3724385,0.627269 z M 53.24788,18.205566 c -1.118872,0.641242 -2.059261,1.190475 -2.089579,1.22045 -0.03058,0.02987 0.155545,0.643615 0.413117,1.36371 2.758687,7.708005 1.168171,16.558002 -4.084249,22.723658 l -0.737917,0.866308 0.654608,2.001261 c 0.360127,1.100416 0.746881,2.283351 0.859454,2.628451 0.112572,0.344835 0.242281,0.62719 0.287627,0.62719 0.193245,0 2.802187,-2.78716 3.664013,-3.914468 3.652413,-4.776557 5.597783,-10.276531 5.765983,-16.30035 0.07303,-2.618697 -0.0551,-4.18575 -0.535181,-6.547796 -0.459254,-2.258807 -1.710734,-5.867351 -2.02657,-5.844415 -0.0754,0.0055 -1.052435,0.534654 -2.171306,1.176001 z m -25.674193,1.806012 c -1.767415,0.312435 -3.288068,1.071812 -4.597732,2.296217 -2.850222,2.664859 -3.578305,6.797617 -1.80443,10.242813 0.674802,1.310798 2.092979,2.791114 3.329221,3.474986 l 0.494845,0.273654 v 1.153671 c 0,1.780071 -0.404945,2.738387 -1.436104,3.397741 -0.244971,0.156864 -1.346706,0.591336 -2.448309,0.965962 -1.101603,0.374627 -2.244728,0.819645 -2.540317,0.988635 -0.731986,0.419182 -1.701164,1.399908 -2.091794,2.116998 -0.258785,0.475072 -4.350706,12.697764 -4.350706,12.995936 0,0.04482 7.592902,0.08173 16.873179,0.08173 9.280251,0 16.873231,-0.03691 16.873231,-0.08173 0,-0.298172 -4.092158,-12.520864 -4.350785,-12.995936 -0.390708,-0.71709 -1.359834,-1.697816 -2.091951,-2.116998 -0.295536,-0.16899 -1.438662,-0.614008 -2.540133,-0.988635 -1.101735,-0.374626 -2.20347,-0.809098 -2.448388,-0.965962 -1.03108,-0.659354 -1.436025,-1.61767 -1.436025,-3.397741 v -1.153671 l 0.494845,-0.273654 c 1.239353,-0.685717 2.654287,-2.164188 3.333413,-3.482895 1.097253,-2.131497 1.249371,-4.537967 0.434209,-6.8751 -0.896099,-2.569239 -3.326823,-4.779668 -6.022765,-5.476458 -0.909808,-0.235111 -2.82855,-0.328913 -3.673504,-0.179563 z"
     fill="white"
     id="path1"
     style="fill:#bd9e59;fill-opacity:1;stroke-width:2.63636" />
</svg>
