<svg class="" xmlns="http://www.w3.org/2000/svg" viewBox="0 0 35 35"><linearGradient id="041560072024206396" gradientUnits="userSpaceOnUse" x1="10.865" y1="4.806" x2="10.865" y2="18.416"><stop offset="0" stop-color="#c7b586"/><stop offset=".812" stop-color="#8f7644"/><stop offset="1" stop-color="#826734"/></linearGradient><path d="M16.9 7.2l-3-2.2c-.4-.3-.8-.3-1.2-.1L4.9 9.1v6.6L7 18.5v-5.6l9.9-5.7z" fill="url(#041560072024206396)"/><linearGradient id="09957057658465007" gradientUnits="userSpaceOnUse" x1="15.472" y1="8.36" x2="15.472" y2="23.854"><stop offset="0" stop-color="#c7b586"/><stop offset=".812" stop-color="#8f7644"/><stop offset="1" stop-color="#826734"/></linearGradient><path fill="url(#09957057658465007)" d="M18.4 8.4l-10 5.4v7.5l2.1 2.6.2-6.1 11.8-6.7z"/><linearGradient id="04425775882824896" gradientUnits="userSpaceOnUse" x1="22.583" y1="12.333" x2="22.583" y2="30.875"><stop offset="0" stop-color="#c7b586"/><stop offset=".812" stop-color="#8f7644"/><stop offset="1" stop-color="#826734"/></linearGradient><path d="M24.2 12.3l-12 7v7.9l3.2 3.6 17.5-12.2-8.7-6.3zm-8.7 9.9l10.1-5.7 3.4 2.4L15.5 28v-5.8z" fill="url(#04425775882824896)"/></svg>