<?xml version="1.0" encoding="utf-8"?>
<!-- Generator: Adobe Illustrator 25.1.0, SVG Export Plug-In . SVG Version: 6.00 Build 0)  -->
<svg version="1.1" id="Layer_1" xmlns="http://www.w3.org/2000/svg" xmlns:xlink="http://www.w3.org/1999/xlink" x="0px" y="0px"
	 viewBox="0 0 24 24" style="enable-background:new 0 0 24 24;" xml:space="preserve">
<style type="text/css">
	.st0{fill:#BD9E59;}
</style>
<g>
	<path class="st0" d="M17,10.8c-4.4-9.3-4.7-9.3-4.7-9.3s-0.3,0-4.7,9.3c-3.7,7.9,2.3,11,4.2,11.7v-2.6l-3-2.4l0,0h0l-0.7-1.3
		l1.4,0.5l0,0l2.3,1.9v-3.2l-2.1-1.7l0,0h0L9,12.4l1.4,0.5l0,0l1.5,1.2V8.9h0l0.5-2l0.5,2h0v5.2l1.5-1.2l1.4-0.5L15,13.7l0,0
		l-2.1,1.7v3.2l2.4-1.9l0,0l1.4-0.5l-0.7,1.3l0,0l-3,2.4v2.6C14.7,21.8,20.7,18.7,17,10.8z"/>
</g>
</svg>
